PathFileType  4	(X/Y/Z) C:\Users\antoi\Documents\MyRepositories\mobilecap\ResultsAnalysis
DataRate	CameraRate	NumFrames	NumMarkers	Units	OrigDataRate	OrigDataStartFrame	OrigNumFrames
100.0	100.0	6	51	mm	100.0	1891	2161
Frame#	Time	r_knee			r_shank_antsup			r_ankle			r_calc			r_5meta			r_toe			L_knee			L_shank_antsup			L_ankle			L_calc			L_5meta			L_toe			r_sh2			r_sh3			r_sh4			L_sh2			L_sh3			r_thigh1			r_thigh2			r_thigh3			r_thigh4			r_thigh5			L_thigh1			L_thigh2			L_thigh3			L_thigh4			r.ASIS			r.PSIS			L.ASIS			L.PSIS			C7			R_Shoulder			L_Shoulder			R_Sternum			L_Sternum			R_humerus			R_elbow_med			R_elbow_lat			R_forearm			R_wrist_radius			R_wrist_ulna			L_humerus			L_elbow_med			L_elbow_lat			L_forearm			L_wrist_radius			L_wrist_ulna			R_HJC			L_HJC			R_HJC_reg			L_HJC_reg			
		X1	Y1	Z1	X2	Y2	Z2	X3	Y3	Z3	X4	Y4	Z4	X5	Y5	Z5	X6	Y6	Z6	X7	Y7	Z7	X8	Y8	Z8	X9	Y9	Z9	X10	Y10	Z10	X11	Y11	Z11	X12	Y12	Z12	X13	Y13	Z13	X14	Y14	Z14	X15	Y15	Z15	X16	Y16	Z16	X17	Y17	Z17	X18	Y18	Z18	X19	Y19	Z19	X20	Y20	Z20	X21	Y21	Z21	X22	Y22	Z22	X23	Y23	Z23	X24	Y24	Z24	X25	Y25	Z25	X26	Y26	Z26	X27	Y27	Z27	X28	Y28	Z28	X29	Y29	Z29	X30	Y30	Z30	X31	Y31	Z31	X32	Y32	Z32	X33	Y33	Z33	X34	Y34	Z34	X35	Y35	Z35	X36	Y36	Z36	X37	Y37	Z37	X38	Y38	Z38	X39	Y39	Z39	X40	Y40	Z40	X41	Y41	Z41	X42	Y42	Z42	X43	Y43	Z43	X44	Y44	Z44	X45	Y45	Z45	X46	Y46	Z46	X47	Y47	Z47	X48	Y48	Z48	X49	Y49	Z49	X50	Y50	Z50	X51	Y51	Z51	

1891	18.90000000	-154.68271	494.72473	-422.53013	-118.93864	442.98834	-422.15475	-254.52149	97.51957	-432.52269	-313.98293	58.85675	-483.75494	-139.23711	39.80747	-386.21767	-94.53397	59.80448	-437.96704	-151.41144	491.51489	-786.83762	-135.35602	404.19930	-804.96586	-245.65785	97.48436	-772.78535	-303.46612	57.62631	-719.09090	-133.03703	41.98875	-813.75485	-84.87340	58.98343	-762.69166	-141.73271	331.50382	-427.51232	-190.28152	455.01103	-394.94136	-213.13177	340.85677	-386.93461	-244.05021	309.73588	-807.95835	-220.20722	429.94943	-807.58377	-88.04365	794.05608	-490.59873	-68.77992	686.72289	-470.51960	-95.25607	668.15837	-410.75539	-160.90001	795.53110	-405.20941	-146.85588	681.02532	-394.49081	-135.20560	816.64254	-789.28975	-125.30980	676.59613	-808.36044	-247.02613	805.77137	-785.58296	-235.74598	665.32353	-772.42941	-121.51579	967.85025	-475.59815	-308.38460	985.29943	-561.73827	-110.18307	954.39647	-715.70822	-305.81657	985.83593	-658.36004	-288.39164	1449.83094	-617.89496	-212.85244	1427.07040	-449.43167	-215.91821	1411.18485	-777.35970	-164.43931	1373.96112	-594.17644	-164.74707	1370.91821	-631.85011	-219.35072	1198.55640	-352.34727	-287.32019	1095.87889	-374.97309	-236.43092	1110.00624	-325.18717	-121.75066	1141.08542	-401.77670	-62.84146	1190.17104	-466.89021	-46.69059	1147.91670	-465.73731	-226.41172	1186.14221	-868.40059	-278.20757	1069.28811	-827.85646	-243.39112	1079.57016	-893.24737	-117.50087	1108.75139	-815.25875	-51.64163	1159.19148	-754.49790	-41.30459	1116.64784	-741.33597	-187.73074	879.90855	-512.96077	-191.67570	880.35340	-703.59101	-181.63880	882.89297	-511.05476	-177.41851	883.77346	-669.89293	
1892	18.91000000	-155.11371	494.71369	-422.83562	-119.41089	442.96867	-422.40622	-254.58293	97.48576	-432.57184	-314.00501	58.82986	-484.09459	-139.23648	39.80097	-386.22255	-94.55513	59.84373	-437.96884	-151.88033	491.38017	-786.86342	-135.70993	404.16576	-805.02303	-245.70947	97.44785	-772.77189	-303.49474	57.64473	-719.13454	-133.04178	41.99600	-813.74729	-84.88430	59.00180	-762.70964	-141.91257	331.29488	-427.76909	-190.96010	454.46968	-395.21796	-213.58668	341.03480	-386.79578	-244.21884	309.63936	-808.01069	-220.50447	429.91733	-807.70963	-89.01517	794.21398	-490.63168	-69.56227	686.90857	-470.64653	-96.06907	668.21903	-411.01201	-161.81652	795.53563	-405.38319	-147.72002	681.02339	-394.69523	-136.01103	816.73740	-789.55821	-125.98872	676.51285	-808.44352	-247.90066	805.60429	-785.73534	-236.34954	665.23040	-772.61303	-122.61689	967.81334	-475.80053	-309.46611	985.29083	-562.24524	-111.08605	954.64391	-716.04046	-307.05307	985.80224	-657.80328	-288.36618	1450.02568	-617.80775	-213.00313	1426.94277	-449.42407	-216.05635	1411.27024	-777.30914	-164.74048	1373.80673	-594.17024	-165.44701	1371.32089	-631.15269	-221.66882	1198.24408	-352.68783	-290.11226	1096.10703	-376.01476	-239.62060	1109.84849	-325.65981	-124.01347	1140.26863	-401.12701	-64.28653	1188.96852	-465.82865	-48.41528	1146.60992	-464.59982	-226.75579	1186.21961	-868.40549	-278.50870	1069.40410	-827.47410	-243.83043	1079.67814	-893.04856	-117.74280	1108.90411	-815.39286	-51.84731	1159.38635	-754.81306	-41.33047	1116.88223	-741.95939	-188.68144	879.87478	-513.19527	-192.72858	880.52129	-703.82290	-182.58366	883.00000	-511.17915	-178.57132	883.84732	-670.10429	
1893	18.92000000	-155.57302	494.73986	-423.00195	-119.84015	442.97569	-422.56235	-254.71619	97.40677	-432.67834	-314.02422	58.81373	-484.29476	-139.23688	39.80338	-386.21594	-94.56213	59.87858	-437.97765	-152.45742	491.08903	-786.66504	-136.02317	404.17318	-805.21668	-245.75275	97.41909	-772.76017	-303.53037	57.66847	-719.18611	-133.03687	42.00849	-813.74191	-84.90495	59.02680	-762.71975	-142.06802	330.85153	-428.03118	-191.44517	454.72144	-395.31063	-213.68448	341.41058	-386.51984	-244.35536	309.56195	-808.05179	-220.80493	429.96398	-807.90954	-90.01862	794.42358	-490.66999	-70.36381	687.03148	-470.81176	-96.91593	668.40305	-411.19200	-162.78488	795.63195	-405.45362	-148.61366	681.08886	-394.83548	-136.91742	816.86196	-789.84693	-126.70307	676.51073	-808.58625	-248.77335	805.50721	-785.85420	-237.04245	665.17480	-772.82256	-123.84443	967.81129	-475.92114	-310.55568	985.23871	-562.68497	-112.25183	954.75382	-716.49592	-308.20389	985.47755	-658.52959	-288.32887	1450.22397	-617.74427	-213.18879	1426.76640	-449.38822	-216.12857	1411.37127	-777.28185	-164.88278	1373.70166	-594.07561	-165.17600	1371.52236	-630.52429	-224.00850	1197.86308	-352.97577	-292.86844	1096.23869	-376.92993	-242.75989	1109.55124	-326.17614	-126.33007	1139.27818	-400.67923	-65.76178	1187.63275	-464.74903	-50.16450	1145.18922	-463.39532	-227.17258	1186.26015	-868.34846	-278.87125	1069.53624	-827.28445	-244.37780	1079.72722	-892.78492	-118.09973	1108.91080	-815.42005	-52.08159	1159.47620	-755.02151	-41.42665	1116.96697	-742.45496	-189.80386	879.84332	-513.60329	-193.69499	880.46912	-704.23329	-183.79743	883.25900	-511.09661	-179.89111	883.66408	-670.24440	
1894	18.93000000	-156.07800	494.76525	-423.04211	-120.21934	443.07159	-422.60481	-254.76870	97.29984	-432.76923	-314.03713	58.79588	-484.28827	-139.24846	39.81777	-386.21299	-94.57075	59.90167	-437.96874	-153.02634	490.94894	-786.63317	-136.33854	404.23502	-805.50375	-245.78742	97.39133	-772.74149	-303.56908	57.63718	-719.16485	-133.03373	42.02772	-813.73797	-84.90414	59.04419	-762.69033	-142.27538	330.63904	-428.11931	-191.81927	454.85082	-395.43005	-214.06800	341.31549	-386.73062	-244.55640	309.51974	-808.17961	-221.15125	430.03301	-808.13206	-91.03095	794.52361	-490.83761	-71.16030	687.09404	-470.95326	-97.75864	668.61023	-411.32986	-163.85318	795.70068	-405.61603	-149.49430	681.17382	-394.98364	-137.88636	816.89065	-790.08172	-127.44874	676.63163	-808.86766	-249.67451	805.52261	-786.27670	-237.80832	665.17200	-773.19162	-125.14106	967.80078	-476.05750	-311.70296	985.11990	-562.96157	-113.34295	954.76112	-716.78429	-309.24112	984.90774	-660.46864	-288.29347	1450.37686	-617.68766	-213.38038	1426.52800	-449.26109	-216.15528	1411.45168	-777.25683	-165.01510	1373.59202	-593.99327	-165.15008	1371.33876	-630.39304	-226.29959	1197.50981	-353.13887	-295.66183	1096.32406	-377.72335	-245.82383	1109.26263	-326.53756	-128.63428	1138.22746	-400.21194	-67.22702	1186.27337	-463.61376	-51.91681	1143.73157	-462.20738	-227.66697	1186.32262	-868.32632	-279.32215	1069.59693	-827.17666	-244.96957	1079.74072	-892.50011	-118.52493	1108.90072	-815.54522	-52.36235	1159.41448	-755.13264	-41.59003	1116.92331	-742.75419	-191.04534	879.78692	-514.11611	-194.41261	880.24047	-704.75655	-185.16294	883.70619	-510.94297	-181.14283	883.37049	-670.19368	
1895	18.94000000	-156.59462	494.76821	-423.10426	-120.59491	443.21039	-422.62810	-254.73817	97.24710	-432.78298	-314.05158	58.76569	-484.24838	-139.26224	39.82330	-386.20665	-94.58994	59.91920	-437.95885	-153.52093	490.98740	-786.78265	-136.67460	404.23190	-805.79193	-245.82678	97.35665	-772.73185	-303.58662	57.57675	-719.09598	-133.03908	42.03860	-813.72186	-84.88714	59.06001	-762.66445	-142.66060	331.02647	-427.99181	-192.19668	454.45580	-395.61753	-215.08164	341.22864	-386.78920	-244.79499	309.51526	-808.50645	-221.53253	430.03842	-808.26350	-92.05211	794.51165	-491.00959	-72.00115	687.18280	-471.10217	-98.54475	668.72583	-411.40147	-164.92499	795.64274	-405.93664	-150.30012	681.22577	-395.09080	-138.89037	816.88125	-790.34640	-128.15982	676.69051	-809.14034	-250.65538	805.47471	-786.83215	-238.57443	665.20022	-773.74397	-126.36975	967.73402	-476.27318	-312.96682	985.01059	-563.08478	-114.55676	954.86162	-717.07909	-310.37296	984.52072	-661.90044	-288.23526	1450.51449	-617.63606	-213.54329	1426.26169	-449.07963	-216.33461	1411.40135	-777.18028	-165.20389	1373.45608	-593.88834	-165.58897	1371.14282	-630.29905	-228.52847	1197.18568	-353.20052	-298.45308	1096.51545	-378.37431	-248.88273	1109.05414	-326.71300	-130.93563	1137.24659	-399.53875	-68.74071	1184.89633	-462.56311	-53.76069	1142.15783	-461.35365	-228.16597	1186.43099	-868.39641	-279.87110	1069.72671	-827.18333	-245.58002	1079.76800	-892.30554	-118.96515	1108.90170	-815.87788	-52.71469	1159.20791	-755.21463	-41.84649	1116.72708	-742.83536	-192.26535	879.70408	-514.59544	-195.34989	880.15002	-705.24155	-186.54868	884.01172	-511.02040	-182.36686	883.21913	-670.31336	
1896	18.95000000	-157.07521	494.75399	-423.24971	-120.96204	443.30126	-422.68999	-254.75770	97.24682	-432.75869	-314.07070	58.73010	-484.24616	-139.26565	39.83005	-386.20403	-94.61182	59.94571	-437.98530	-153.99622	490.98467	-786.74426	-136.99278	404.11297	-805.97541	-245.87048	97.31042	-772.74313	-303.56713	57.53821	-719.06890	-133.04901	42.04095	-813.71906	-84.89387	59.07612	-762.67809	-143.11035	331.65083	-427.88994	-192.54611	454.17431	-395.71731	-215.84224	341.60876	-386.25788	-245.03870	309.52888	-808.85479	-221.90185	429.95034	-808.26843	-93.09260	794.55070	-491.15846	-72.88826	687.37884	-471.22649	-99.25777	668.80456	-411.35346	-165.95340	795.55866	-406.26449	-151.08404	681.25584	-395.12771	-139.96901	816.95932	-790.64894	-128.78767	676.61384	-809.31532	-251.72219	805.18701	-787.05540	-239.34638	665.13862	-774.14221	-127.57888	967.62281	-476.56392	-314.31826	984.98877	-563.17034	-115.90835	955.02576	-717.37209	-311.71663	984.44362	-662.05897	-288.13799	1450.67246	-617.61121	-213.68369	1426.00389	-448.94517	-216.37854	1411.39258	-777.15604	-165.37050	1373.29473	-593.78388	-165.81459	1370.94909	-630.15965	-230.73354	1196.83274	-353.30555	-301.20040	1096.76761	-378.94711	-251.93866	1108.82988	-326.96696	-133.24708	1136.29663	-398.82335	-70.28844	1183.47825	-461.58084	-55.59342	1140.53594	-460.52422	-228.62439	1186.52902	-868.49343	-280.48359	1070.00268	-827.27990	-246.23445	1079.87067	-892.35515	-119.44748	1108.81810	-816.19740	-53.15397	1158.93287	-755.38295	-42.26149	1116.36225	-742.90175	-193.47253	879.62452	-514.90139	-196.68391	880.23858	-705.54480	-187.89399	884.13373	-511.28128	-183.70315	883.25267	-670.56106	
